<?xml version="1.0" encoding="UTF-8" standalone="no"?>
<!DOCTYPE svg PUBLIC "-//W3C//DTD SVG 1.1//EN" "http://www.w3.org/Graphics/SVG/1.1/DTD/svg11.dtd">
<svg width="100%" height="100%" viewBox="0 0 897 801" version="1.1" xmlns="http://www.w3.org/2000/svg" xmlns:xlink="http://www.w3.org/1999/xlink" xml:space="preserve" xmlns:serif="http://www.serif.com/" style="fill-rule:evenodd;clip-rule:evenodd;stroke-linecap:round;stroke-linejoin:round;">
    <g transform="matrix(1,0,0,-1,0,840.316)">
        <path d="M770.043,95.808C721.449,43.617 592.285,67.171 477.746,89.98C363.203,112.793 263.5,134.738 203.578,202.472C143.852,270.05 123.879,383.601 153.516,486.054C182.938,588.66 262.18,680.199 370.871,732.128C479.562,784.222 617.727,796.699 686.652,735.179C755.73,673.89 755.391,538.628 771.195,407.191C786.828,275.777 818.797,148.023 770.043,95.808Z" style="fill:rgb(28,28,30);fill-rule:nonzero;"/>
    </g>
    <g transform="matrix(1,0,0,-1,0,794.343)">
        <rect x="440.699" y="391.449" width="114.809" height="11.445" style="fill:rgb(255,217,142);"/>
    </g>
    <g transform="matrix(1,0,0,-1,0,768.5)">
        <rect x="430.34" y="377.043" width="99.816" height="14.414" style="fill:rgb(107,213,225);"/>
    </g>
    <g transform="matrix(1,0,0,-1,0,836.136)">
        <rect x="427.641" y="402.902" width="98.758" height="30.332" style="fill:rgb(224,224,224);"/>
    </g>
    <g transform="matrix(1,0,0,-1,0,543.246)">
        <path d="M719.27,263.711C710.723,252.402 708.117,240.418 713.742,234.09L713.652,233.871L798.516,309.375" style="fill:rgb(95,197,209);fill-rule:nonzero;"/>
    </g>
    <g transform="matrix(1,0,0,-1,0,957.824)">
        <path d="M110.062,560.929C105.312,572.414 93.879,621.367 54.98,621.367C36.637,621.367 7.496,602.293 7.496,571.004C7.496,553.152 19.883,530.769 31.551,507.426C41.25,515.816 55.309,516.84 66.121,509.937C76.93,503.031 81.918,489.847 78.387,477.515C74.852,465.187 63.637,456.644 50.812,456.515C69.695,349.472 115.449,336.457 126.578,336.457C137.703,336.457 151.398,465.961 151.398,481.066C151.398,496.172 129.844,513.086 110.062,560.929Z" style="fill:rgb(255,217,142);fill-rule:nonzero;"/>
    </g>
    <g transform="matrix(1,0,0,-1,0,1020.05)">
        <path d="M227.52,524.12C217.48,524.144 208.426,530.175 204.539,539.433C200.648,548.691 202.68,559.378 209.691,566.566C216.703,573.753 227.336,576.046 236.688,572.386C236.469,593.437 226.121,633.234 180.238,633.234C155.387,633.234 139.25,597.616 135.254,567.038C131.945,541.765 107.914,500.132 107.914,466.312C107.914,420.988 138.133,386.82 152.156,386.82C181.648,386.82 216.137,463.195 230.18,524.261C229.297,524.171 228.41,524.124 227.52,524.12Z" style="fill:rgb(107,213,225);fill-rule:nonzero;"/>
    </g>
    <g transform="matrix(0.173798,-0.984781,0.984781,0.173798,-410.921,608.633)">
        <path d="M82.571,552.934C94.314,548.831 169.711,529.881 233.275,552.934" style="fill:none;fill-rule:nonzero;stroke:rgb(255,217,142);stroke-width:2.19px;"/>
    </g>
    <g transform="matrix(0.295894,0.955221,-0.955221,0.295894,536.344,258.77)">
        <path d="M-26.865,493.199C32.172,474.473 123.955,470.848 212.15,493.199" style="fill:none;fill-rule:nonzero;stroke:rgb(107,213,225);stroke-width:2.19px;"/>
    </g>
    <g transform="matrix(1,0,0,-1,0,1398.61)">
        <path d="M101.266,614.332L177.23,614.332L221.215,784.273L57.281,784.273L101.266,614.332Z" style="fill:rgb(201,201,201);fill-rule:nonzero;"/>
    </g>
    <g transform="matrix(1,0,0,-1,0,879.581)">
        <rect x="177.828" y="433.234" width="525.73" height="13.113" style="fill:rgb(253,131,105);"/>
    </g>
    <g transform="matrix(0,-1,1,0,-393.269,836.933)">
        <path d="M52.66,615.102L391.004,615.102" style="fill:none;fill-rule:nonzero;stroke:rgb(253,131,105);stroke-width:2px;"/>
    </g>
    <g transform="matrix(0,-1,1,0,-304.829,925.374)">
        <path d="M141.101,615.102L479.444,615.102" style="fill:none;fill-rule:nonzero;stroke:rgb(253,131,105);stroke-width:2px;"/>
    </g>
    <g transform="matrix(1,0,0,-1,0,964.476)">
        <path d="M221.832,482.238L310.273,482.238" style="fill:none;fill-rule:nonzero;stroke:rgb(253,131,105);stroke-width:2px;"/>
    </g>
    <g transform="matrix(1,0,0,-1,0,1522.76)">
        <path d="M221.832,761.379L310.273,761.379" style="fill:none;fill-rule:nonzero;stroke:rgb(253,131,105);stroke-width:2px;"/>
    </g>
    <g transform="matrix(0,-1,1,0,-43.9805,1186.22)">
        <path d="M401.949,615.102L740.292,615.102" style="fill:none;fill-rule:nonzero;stroke:rgb(253,131,105);stroke-width:2px;"/>
    </g>
    <g transform="matrix(0,-1,1,0,44.4615,1274.66)">
        <path d="M490.391,615.102L828.734,615.102" style="fill:none;fill-rule:nonzero;stroke:rgb(253,131,105);stroke-width:2px;"/>
    </g>
    <g transform="matrix(1,0,0,-1,0,964.476)">
        <path d="M571.121,482.238L659.563,482.238" style="fill:none;fill-rule:nonzero;stroke:rgb(253,131,105);stroke-width:2px;"/>
    </g>
    <g transform="matrix(1,0,0,-1,0,1522.76)">
        <path d="M571.121,761.379L659.563,761.379" style="fill:none;fill-rule:nonzero;stroke:rgb(253,131,105);stroke-width:2px;"/>
    </g>
    <g transform="matrix(1,0,0,-1,0,849.632)">
        <rect x="244.824" y="416.398" width="96.738" height="16.836" style="fill:rgb(255,217,142);"/>
    </g>
    <g transform="matrix(1,0,0,-1,0,566.46)">
        <path d="M405.238,352.69L405.238,361.796C405.152,391.917 380.758,416.312 350.641,416.398L347.801,416.398C317.68,416.312 293.285,391.917 293.199,361.796L293.199,150.062" style="fill:none;fill-rule:nonzero;stroke:rgb(255,217,142);stroke-width:3px;"/>
    </g>
    <g transform="matrix(1,0,0,-1,0,479.34)">
        <path d="M434.121,214.18L434.121,236.25C434.074,252.203 421.152,265.121 405.199,265.16C389.266,265.094 376.375,252.184 376.328,236.25L376.328,214.18L434.121,214.18Z" style="fill:rgb(107,213,225);fill-rule:nonzero;"/>
    </g>
    <g transform="matrix(1,0,0,-1,0,539.082)">
        <path d="M414.059,273.801C413.898,269.051 410,265.281 405.246,265.281C400.492,265.281 396.594,269.051 396.434,273.801" style="fill:rgb(255,217,142);fill-rule:nonzero;"/>
    </g>
    <g transform="matrix(1,0,0,-1,0,836.097)">
        <path d="M420.406,433.195L526.367,433.195C534.73,433.187 541.523,426.433 541.574,418.07C541.547,409.702 534.773,402.929 526.406,402.902L420.445,402.902" style="fill:none;fill-rule:nonzero;stroke:black;stroke-width:2.09px;"/>
    </g>
    <g transform="matrix(1,0,0,-1,0,817.492)">
        <rect x="593.297" y="384.25" width="34.555" height="48.992" style="fill:rgb(107,213,225);"/>
    </g>
    <g transform="matrix(1,0,0,-1,0,816.754)">
        <path d="M627.852,421.535C632.641,421.668 637.125,419.192 639.555,415.063C641.988,410.938 641.988,405.816 639.555,401.688C637.125,397.563 632.641,395.086 627.852,395.215" style="fill:none;fill-rule:nonzero;stroke:black;stroke-width:2.19px;"/>
    </g>
    <g transform="matrix(1,0,0,-1,0,1578.94)">
        <rect x="762.297" y="779.613" width="133.203" height="19.715" style="fill:none;stroke:rgb(255,217,142);stroke-width:3px;"/>
    </g>
    <g transform="matrix(0,-1,1,0,339.478,1318.33)">
        <path d="M538.712,489.424L1119.09,489.424" style="fill:none;fill-rule:nonzero;stroke:rgb(255,217,142);stroke-width:3px;"/>
    </g>
    <g transform="matrix(1,0,0,-1,0,598.172)">
        <path d="M828.902,252.867C795.383,252.977 768.234,280.125 768.125,313.649L768.125,345.305" style="fill:none;fill-rule:nonzero;stroke:rgb(255,217,142);stroke-width:3px;"/>
    </g>
    <g transform="matrix(1,0,0,-1,0,485.339)">
        <path d="M889.574,286.105L889.574,260.015C889.461,226.491 862.316,199.343 828.793,199.234" style="fill:none;fill-rule:nonzero;stroke:rgb(255,217,142);stroke-width:3px;"/>
    </g>
    <g transform="matrix(1,0,0,-1,0,533.864)">
        <path d="M760.199,292.602C760.199,292.602 752.68,297.891 747.66,297.891C742.645,297.891 719.453,278.708 717.57,269.552C715.691,260.395 724.148,238.391 726.57,235.973L747.68,254.786L760.199,292.614" style="fill:rgb(95,197,209);fill-rule:nonzero;"/>
    </g>
    <g transform="matrix(0,1,-1,0,1082.37,-696.776)">
        <ellipse cx="889.573" cy="192.796" rx="6.269" ry="6.267" style="fill:rgb(255,217,142);"/>
    </g>
    <g transform="matrix(0,1,-1,0,746.005,-427.33)">
        <ellipse cx="586.668" cy="159.338" rx="62.19" ry="62.187" style="fill:rgb(255,217,142);"/>
    </g>
    <g transform="matrix(0,-1,1,0,449.557,723.779)">
        <path d="M564.439,137.111L608.896,137.111" style="fill:none;fill-rule:nonzero;stroke:rgb(107,213,225);stroke-width:3px;"/>
    </g>
    <g transform="matrix(1,0,0,-1,0,318.68)">
        <path d="M586.668,159.34L615.387,159.34" style="fill:none;fill-rule:nonzero;stroke:rgb(107,213,225);stroke-width:3px;"/>
    </g>
    <g transform="matrix(1,0,0,-1,0,240.696)">
        <rect x="0" y="115.715" width="222.293" height="9.266" style="fill:rgb(253,131,105);"/>
    </g>
    <g transform="matrix(1,0,0,-1,0,115.887)">
        <rect x="98.645" y="0.172" width="22.234" height="115.543" style="fill:rgb(224,224,224);"/>
    </g>
    <g transform="matrix(1,0,0,-1,0,130.301)">
        <rect x="79.312" y="14.578" width="19.332" height="101.145" style="fill:rgb(255,217,142);"/>
    </g>
    <g transform="matrix(0.836635,-0.547761,0.547761,0.836635,-8.84383,103.222)">
        <rect x="158.923" y="15.661" width="19.412" height="101.552" style="fill:rgb(224,224,224);"/>
    </g>
    <g transform="matrix(1,0,0,-1,0,147.508)">
        <rect x="120.867" y="31.793" width="11.988" height="83.922" style="fill:rgb(107,213,225);"/>
    </g>
    <g transform="matrix(1,0,0,-1,0,261.546)">
        <rect x="28.32" y="124.98" width="11.586" height="11.586" style="fill:rgb(253,131,105);"/>
    </g>
    <g transform="matrix(1,0,0,-1,0,261.546)">
        <rect x="182.387" y="124.98" width="11.586" height="11.586" style="fill:rgb(253,131,105);"/>
    </g>
    <g transform="matrix(1,0,0,-1,0,507.171)">
        <path d="M744.082,225.316C736.867,233.433 743.191,250.855 758.227,264.23C773.262,277.609 791.285,281.855 798.516,273.749" style="fill:rgb(107,213,225);fill-rule:nonzero;"/>
    </g>
</svg>
